<mxfile host="app.diagrams.net" modified="2021-01-15T12:29:31.794Z" agent="5.0 (Windows NT 10.0; Win64; x64) AppleWebKit/537.36 (KHTML, like Gecko) Chrome/87.0.4280.141 Safari/537.36 Edg/87.0.664.75" etag="fmHrKAO31dpgiWBsfCtP" version="14.2.3" type="github">
  <diagram id="T6xlHbsUolrJedsmvCXW" name="Page-1">
    <mxGraphModel dx="941" dy="614" grid="1" gridSize="10" guides="1" tooltips="1" connect="1" arrows="1" fold="1" page="1" pageScale="1" pageWidth="827" pageHeight="1169" math="0" shadow="0">
      <root>
        <mxCell id="0" />
        <mxCell id="1" parent="0" />
        <mxCell id="YMOrMJ7NWThHLhNSM4CX-1" value="" style="ellipse;whiteSpace=wrap;html=1;fillColor=#1ba1e2;strokeColor=#006EAF;fontColor=#ffffff;" vertex="1" parent="1">
          <mxGeometry x="60" y="50" width="120" height="80" as="geometry" />
        </mxCell>
        <mxCell id="YMOrMJ7NWThHLhNSM4CX-2" value="" style="rounded=0;whiteSpace=wrap;html=1;fillColor=#1ba1e2;strokeColor=#006EAF;fontColor=#ffffff;" vertex="1" parent="1">
          <mxGeometry x="60" y="160" width="120" height="60" as="geometry" />
        </mxCell>
        <mxCell id="YMOrMJ7NWThHLhNSM4CX-4" value="" style="rounded=0;whiteSpace=wrap;html=1;fillColor=#1ba1e2;strokeColor=#006EAF;fontColor=#ffffff;" vertex="1" parent="1">
          <mxGeometry x="240" y="160" width="120" height="60" as="geometry" />
        </mxCell>
        <mxCell id="YMOrMJ7NWThHLhNSM4CX-5" value="" style="rounded=0;whiteSpace=wrap;html=1;strokeColor=#006EAF;fontColor=#ffffff;fillColor=#E6E6E6;" vertex="1" parent="1">
          <mxGeometry x="440" y="40" width="240" height="30" as="geometry" />
        </mxCell>
        <mxCell id="YMOrMJ7NWThHLhNSM4CX-7" value="" style="rounded=0;whiteSpace=wrap;html=1;strokeColor=#006EAF;fontColor=#ffffff;fillColor=#E6E6E6;" vertex="1" parent="1">
          <mxGeometry x="440" y="280" width="240" height="30" as="geometry" />
        </mxCell>
        <mxCell id="YMOrMJ7NWThHLhNSM4CX-8" value="" style="rounded=0;whiteSpace=wrap;html=1;strokeColor=#006EAF;fontColor=#ffffff;fillColor=#E6E6E6;" vertex="1" parent="1">
          <mxGeometry x="440" y="240" width="240" height="30" as="geometry" />
        </mxCell>
        <mxCell id="YMOrMJ7NWThHLhNSM4CX-9" value="" style="rounded=0;whiteSpace=wrap;html=1;strokeColor=#006EAF;fontColor=#ffffff;fillColor=#E6E6E6;" vertex="1" parent="1">
          <mxGeometry x="440" y="80" width="240" height="30" as="geometry" />
        </mxCell>
        <mxCell id="YMOrMJ7NWThHLhNSM4CX-10" value="" style="rounded=0;whiteSpace=wrap;html=1;strokeColor=#006EAF;fontColor=#ffffff;fillColor=#E6E6E6;" vertex="1" parent="1">
          <mxGeometry x="440" y="120" width="240" height="30" as="geometry" />
        </mxCell>
        <mxCell id="YMOrMJ7NWThHLhNSM4CX-11" value="" style="rounded=0;whiteSpace=wrap;html=1;strokeColor=#006EAF;fontColor=#ffffff;fillColor=#E6E6E6;" vertex="1" parent="1">
          <mxGeometry x="440" y="160" width="240" height="30" as="geometry" />
        </mxCell>
        <mxCell id="YMOrMJ7NWThHLhNSM4CX-12" value="" style="rounded=0;whiteSpace=wrap;html=1;strokeColor=#006EAF;fontColor=#ffffff;fillColor=#E6E6E6;" vertex="1" parent="1">
          <mxGeometry x="440" y="200" width="240" height="30" as="geometry" />
        </mxCell>
        <mxCell id="YMOrMJ7NWThHLhNSM4CX-14" value="" style="rounded=0;whiteSpace=wrap;html=1;strokeColor=#006EAF;fontColor=#ffffff;fillColor=#E6E6E6;" vertex="1" parent="1">
          <mxGeometry x="440" y="320" width="240" height="30" as="geometry" />
        </mxCell>
      </root>
    </mxGraphModel>
  </diagram>
</mxfile>
